<?xml version="1.0" encoding="UTF-8"?>
<svg id="Layer_1" data-name="Layer 1" xmlns="http://www.w3.org/2000/svg" viewBox="0 0 353.75 33.92">
  <defs>
    <style>
      .cls-1 {
        fill: #fff;
      }
    </style>
  </defs>
  <path class="cls-1" d="M32.21,33.92l-3.2-7.62H10.9l-3.15,7.62H0L12.89,4.57l-1.34-4.57h13.53l14.85,33.92h-7.72ZM12.81,21.65h14.25l-7.08-16.89h-.1l-7.08,16.89Z"/>
  <path class="cls-1" d="M42.42,4.72V0h7.43v4.72h-7.43ZM49.84,33.92V8.49h-7.43v25.43h7.43Z"/>
  <path class="cls-1" d="M72.77,13.29l-8.29-.37c-.94,0-1.42.46-1.42,1.37l.05,19.64h-7.33l-.05-21.01-1.42-4.42h7.23l.97.97c.1-.07.24-.15.41-.26.17-.11.57-.25,1.2-.43.63-.18,1.31-.27,2.04-.27h8l-1.39,4.79Z"/>
  <path class="cls-1" d="M107.09,0c1.67,0,3.1.59,4.27,1.78,1.18,1.18,1.76,2.59,1.76,4.23v10.16c0,1.67-.59,3.09-1.76,4.26-1.18,1.17-2.6,1.75-4.27,1.75h-21.93v11.75h-7.33V4.62l-1.42-4.62h30.67ZM105.82,15.77V6.41c0-.51-.17-.94-.52-1.28-.35-.34-.79-.51-1.32-.51h-18.82v12.94h18.82c.53,0,.97-.17,1.32-.51.35-.34.52-.77.52-1.28Z"/>
  <path class="cls-1" d="M117.64,27.91v-3.75c0-1.8.54-3.26,1.63-4.36,1.08-1.1,2.56-1.65,4.43-1.65h17.33v-3.75c0-.43-.13-.79-.4-1.07-.26-.28-.6-.42-1.02-.42h-19.79l-1.32-4.42h23.89c1.62,0,3.02.6,4.2,1.79,1.18,1.19,1.76,2.6,1.76,4.22v15l1.37,4.42h-26.02c-1.87,0-3.35-.55-4.43-1.65-1.08-1.1-1.63-2.55-1.63-4.36ZM125.07,27.86c0,.48.16.87.47,1.18.31.31.73.46,1.24.46h14.25v-7.38h-14.25c-.51,0-.93.15-1.24.45-.31.3-.47.69-.47,1.17v4.12Z"/>
  <path class="cls-1" d="M171.06,13.29l-8.29-.37c-.94,0-1.42.46-1.42,1.37l.05,19.64h-7.33l-.05-21.01-1.42-4.42h7.23l.97.97c.1-.07.24-.15.41-.26.17-.11.57-.25,1.2-.43.63-.18,1.31-.27,2.04-.27h8l-1.39,4.79Z"/>
  <path class="cls-1" d="M199.95,33.92l-9.93-12.52-6.56,5.04v7.47h-7.33V4.42l-1.42-4.42h8.74v20.64l15.77-12.14h7.62l-11.99,9.21,13.06,16.22h-7.97Z"/>
  <path class="cls-1" d="M239.73,0h7.33v33.92h-7.33v-15.15h-20.29v15.15h-7.33V4.84l-1.61-4.84h8.94v14.13h20.29V0Z"/>
  <path class="cls-1" d="M276.88,8.49c1.62,0,3.02.6,4.2,1.79,1.18,1.19,1.76,2.6,1.76,4.22v13.41c0,1.62-.59,3.03-1.76,4.22-1.18,1.19-2.57,1.79-4.2,1.79h-18.7c-1.67,0-3.1-.59-4.28-1.78-1.18-1.18-1.78-2.59-1.78-4.23v-13.41c0-1.64.59-3.05,1.78-4.23s2.61-1.78,4.28-1.78h18.7ZM275.52,27.76v-13.11c0-.5-.17-.91-.5-1.24-.33-.33-.75-.5-1.24-.5h-12.52c-.51,0-.93.16-1.24.48-.31.32-.47.74-.47,1.25v13.11c0,.51.16.93.47,1.25.31.32.73.48,1.24.48h12.52c.51,0,.93-.16,1.25-.48.32-.32.48-.74.48-1.25Z"/>
  <path class="cls-1" d="M296.56,27.76c0,.51.16.93.48,1.25.32.32.74.48,1.25.48h8.69l-1.32,4.42h-10.48c-1.62,0-3.03-.6-4.22-1.79-1.19-1.19-1.79-2.6-1.79-4.22v-14.48h-2.81v-4.44h2.81V0h7.38v8.99h10.43l-1.32,4.44h-9.11v14.33Z"/>
  <path class="cls-1" d="M310.49,27.91v-13.41c0-1.64.59-3.05,1.78-4.23s2.61-1.78,4.28-1.78h18.7c1.62,0,3.02.6,4.2,1.79,1.18,1.19,1.76,2.6,1.76,4.22v9.14h-23.29v4.22c0,.48.16.87.47,1.18.31.31.73.46,1.24.46h21.58l-1.32,4.42h-23.34c-1.67,0-3.1-.59-4.28-1.78-1.18-1.18-1.78-2.59-1.78-4.23ZM317.91,19.69h15.97v-5.04c0-.51-.16-.93-.48-1.25s-.74-.48-1.25-.48h-12.52c-.51,0-.93.16-1.24.48-.31.32-.47.74-.47,1.25v5.04Z"/>
  <path class="cls-1" d="M346.33,33.92V0h7.43v33.92h-7.43Z"/>
</svg>